<svg width="60" height="60" viewBox="0 0 60 60" fill="none" xmlns="http://www.w3.org/2000/svg">
<circle cx="30" cy="30" r="29.5" fill="white" stroke="#EE7B7B"/>
<path d="M38.4682 30.7363C38.6542 30.5473 38.7574 30.2921 38.7552 30.027C38.753 29.7618 38.6456 29.5084 38.4566 29.3224L32.7535 23.7119C32.6604 23.6172 32.5495 23.5419 32.4271 23.4905C32.3046 23.4391 32.1732 23.4126 32.0404 23.4125C31.9076 23.4125 31.7761 23.4388 31.6537 23.4901C31.5312 23.5414 31.4201 23.6166 31.327 23.7112C31.2339 23.8059 31.1606 23.9181 31.1113 24.0415C31.062 24.1648 31.0378 24.2966 31.04 24.4294C31.0423 24.5622 31.0709 24.6932 31.1244 24.8147C31.1778 24.9363 31.2548 25.046 31.3511 25.1375L35.3333 29.055L22.0908 29.1635C21.8256 29.1657 21.5721 29.2731 21.3861 29.4622C21.2001 29.6512 21.0968 29.9064 21.099 30.1717C21.1012 30.4369 21.2086 30.6903 21.3977 30.8763C21.5868 31.0623 21.842 31.1656 22.1072 31.1634L35.3497 31.0549L31.4322 35.0371C31.2516 35.2272 31.1529 35.4807 31.1573 35.7428C31.1618 36.005 31.269 36.2549 31.4559 36.4388C31.6428 36.6227 31.8945 36.7258 32.1567 36.7259C32.4189 36.7261 32.6707 36.6232 32.8578 36.4395L38.4682 30.7363Z" fill="#EE7B7B"/>
</svg>
