<svg width="60" height="60" viewBox="0 0 60 60" fill="none" xmlns="http://www.w3.org/2000/svg">
<circle cx="30" cy="30" r="29.5" fill="white" stroke="#EE7B7B"/>
<path d="M21.5159 29.2595C21.3302 29.4487 21.2273 29.704 21.2298 29.9692C21.2323 30.2343 21.34 30.4876 21.5292 30.6734L27.2394 36.2767C27.3325 36.3714 27.4436 36.4465 27.5661 36.4978C27.6886 36.549 27.82 36.5754 27.9528 36.5753C28.0856 36.5752 28.217 36.5486 28.3394 36.4972C28.4619 36.4458 28.5728 36.3705 28.6658 36.2757C28.7588 36.1809 28.832 36.0686 28.8811 35.9452C28.9302 35.8218 28.9543 35.6899 28.9519 35.5571C28.9495 35.4244 28.9207 35.2934 28.8671 35.1719C28.8136 35.0504 28.7363 34.9408 28.64 34.8495L24.6528 30.9369L37.8953 30.8119C38.1605 30.8094 38.4138 30.7017 38.5996 30.5124C38.7853 30.3231 38.8883 30.0677 38.8858 29.8025C38.8833 29.5373 38.7755 29.284 38.5862 29.0982C38.3969 28.9125 38.1416 28.8095 37.8764 28.812L24.634 28.937L28.5465 24.9499C28.7269 24.7596 28.8253 24.506 28.8205 24.2439C28.8158 23.9817 28.7082 23.7319 28.5211 23.5483C28.3339 23.3646 28.0821 23.2618 27.8199 23.262C27.5577 23.2622 27.3061 23.3654 27.1192 23.5493L21.5159 29.2595Z" fill="#EE7B7B"/>
</svg>
