<svg width="44" height="49" viewBox="0 0 44 49" fill="none" xmlns="http://www.w3.org/2000/svg">
<path d="M21.625 47.4166V24.4999M21.625 24.4999L41.6313 12.9499M21.625 24.4999L1.61875 12.9499M42.25 33.6849V15.3103C42.2486 14.5107 42.0359 13.7256 41.6335 13.0347C41.231 12.3437 40.6532 11.7713 39.9583 11.3755L23.9167 2.19054C23.2184 1.79271 22.4286 1.5835 21.625 1.5835C20.8214 1.5835 20.0316 1.79271 19.3333 2.19054L3.29167 11.3755C1.87312 12.1891 1 13.6901 1 15.3126V33.6872C1 35.312 1.87312 36.8108 3.29167 37.622L19.3333 46.807C20.0316 47.2048 20.8214 47.4141 21.625 47.4141C22.4286 47.4141 23.2184 47.2048 23.9167 46.807L39.9583 37.622C41.3769 36.8085 42.25 35.3074 42.25 33.6849Z" stroke="#EE7B7B" stroke-width="2" stroke-linecap="round" stroke-linejoin="round"/>
</svg>
