<svg width="66" height="66" viewBox="0 0 66 66" fill="none" xmlns="http://www.w3.org/2000/svg">
<circle cx="33" cy="33" r="33" fill="#EE7B7B"/>
<path d="M18 25.5C18 24.5054 18.3951 23.5516 19.0983 22.8483C19.8016 22.1451 20.7554 21.75 21.75 21.75H44.25C45.2446 21.75 46.1984 22.1451 46.9016 22.8483C47.6049 23.5516 48 24.5054 48 25.5V40.5C48 41.4946 47.6049 42.4484 46.9016 43.1516C46.1984 43.8549 45.2446 44.25 44.25 44.25H21.75C20.7554 44.25 19.8016 43.8549 19.0983 43.1516C18.3951 42.4484 18 41.4946 18 40.5V25.5ZM21.75 23.625C21.2527 23.625 20.7758 23.8225 20.4242 24.1742C20.0725 24.5258 19.875 25.0027 19.875 25.5V25.9069L33 33.7819L46.125 25.9069V25.5C46.125 25.0027 45.9275 24.5258 45.5758 24.1742C45.2242 23.8225 44.7473 23.625 44.25 23.625H21.75ZM46.125 28.0931L37.2975 33.39L46.125 38.8219V28.0931ZM46.0612 40.9856L35.4862 34.4775L33 35.9681L30.5138 34.4775L19.9388 40.9838C20.0453 41.3827 20.2806 41.7354 20.6081 41.987C20.9356 42.2385 21.337 42.3749 21.75 42.375H44.25C44.6627 42.3751 45.0639 42.2389 45.3914 41.9877C45.7189 41.7365 45.9544 41.3843 46.0612 40.9856ZM19.875 38.8219L28.7025 33.39L19.875 28.0931V38.8219Z" fill="white"/>
</svg>
