<svg width="30" height="24" viewBox="0 0 30 24" fill="none" xmlns="http://www.w3.org/2000/svg">
<path d="M1.33908 5.92817L11.2274 12.5213C12.5917 13.4294 13.2731 13.8842 14.0097 14.0612C14.6614 14.2171 15.34 14.2171 15.9902 14.0612C16.7269 13.8842 17.4083 13.4294 18.7726 12.5213L28.6609 5.92817M8.13908 22.625H21.8609C24.2409 22.625 25.4309 22.625 26.3404 22.1617C27.1395 21.7541 27.7892 21.1039 28.1962 20.3045C28.6609 19.395 28.6609 18.205 28.6609 15.825V8.175C28.6609 5.795 28.6609 4.605 28.1977 3.6955C27.7902 2.89585 27.1401 2.24571 26.3404 1.83825C25.4309 1.375 24.2409 1.375 21.8609 1.375H8.13908C5.75908 1.375 4.56908 1.375 3.65958 1.83825C2.86045 2.24595 2.21083 2.89606 1.80375 3.6955C1.33908 4.605 1.33908 5.795 1.33908 8.175V15.825C1.33908 18.205 1.33908 19.395 1.80233 20.3045C2.20979 21.1042 2.85993 21.7543 3.65958 22.1617C4.56908 22.625 5.75908 22.625 8.13908 22.625Z" stroke="#EE7B7B" stroke-width="1.5" stroke-linecap="round" stroke-linejoin="round"/>
</svg>
