<svg width="66" height="66" viewBox="0 0 66 66" fill="none" xmlns="http://www.w3.org/2000/svg">
<circle cx="33" cy="33" r="33" fill="#EE7B7B"/>
<path d="M33.5 29.375V34.5312M45.875 33.5C45.875 35.1251 45.5549 36.7343 44.933 38.2357C44.3111 39.7371 43.3996 41.1013 42.2504 42.2504C41.1013 43.3996 39.7371 44.3111 38.2357 44.933C36.7343 45.5549 35.1251 45.875 33.5 45.875C31.8749 45.875 30.2657 45.5549 28.7643 44.933C27.2629 44.3111 25.8987 43.3996 24.7496 42.2504C23.6004 41.1013 22.6889 39.7371 22.067 38.2357C21.4451 36.7343 21.125 35.1251 21.125 33.5C21.125 30.2179 22.4288 27.0703 24.7496 24.7496C27.0703 22.4288 30.2179 21.125 33.5 21.125C36.7821 21.125 39.9297 22.4288 42.2504 24.7496C44.5712 27.0703 45.875 30.2179 45.875 33.5ZM33.5 38.6562H33.511V38.6673H33.5V38.6562Z" stroke="white" stroke-width="1.5" stroke-linecap="round" stroke-linejoin="round"/>
</svg>
