<svg width="66" height="66" viewBox="0 0 66 66" fill="none" xmlns="http://www.w3.org/2000/svg">
<circle cx="33" cy="33" r="33" fill="#EE7B7B"/>
<path d="M26.63 24.8333C26.7 25.8717 26.875 26.8867 27.155 27.855L25.755 29.255C25.2767 27.855 24.9733 26.3733 24.8683 24.8333H26.63ZM38.1333 38.8567C39.125 39.1367 40.14 39.3117 41.1667 39.3817V41.12C39.6267 41.015 38.145 40.7117 36.7333 40.245L38.1333 38.8567ZM27.75 22.5H23.6667C23.025 22.5 22.5 23.025 22.5 23.6667C22.5 34.6217 31.3783 43.5 42.3333 43.5C42.975 43.5 43.5 42.975 43.5 42.3333V38.2617C43.5 37.62 42.975 37.095 42.3333 37.095C40.8867 37.095 39.475 36.8617 38.1683 36.43C38.0528 36.3869 37.9299 36.367 37.8067 36.3717C37.5033 36.3717 37.2117 36.4883 36.9783 36.71L34.4117 39.2767C31.1047 37.5854 28.4146 34.8953 26.7233 31.5883L29.29 29.0217C29.6167 28.695 29.71 28.24 29.5817 27.8317C29.1399 26.4875 28.9154 25.0815 28.9167 23.6667C28.9167 23.025 28.3917 22.5 27.75 22.5Z" fill="white"/>
</svg>
