<svg width="40" height="38" viewBox="0 0 40 38" fill="none" xmlns="http://www.w3.org/2000/svg">
<path d="M14.25 3.13559C9.95346 4.11517 6.19453 6.70143 3.74402 10.364C1.29351 14.0266 0.337112 18.4879 1.07096 22.8332M14.25 3.13559L8.49996 0.791504M14.25 3.13559L12.3333 8.45817M33.5393 27.6248C34.723 25.2427 35.3371 22.6182 35.3333 19.9582C35.3333 11.4098 29.1175 4.31625 20.9583 2.94584M33.5393 27.6248L39.1666 23.7915M33.5393 27.6248L30.5416 21.8748M3.73896 29.5415C5.31387 31.9017 7.44725 33.8364 9.94962 35.1738C12.452 36.5113 15.2459 37.2101 18.0833 37.2082C22.3275 37.2135 26.4236 35.6488 29.5833 32.8152M3.73896 29.5415H10.4166M3.73896 29.5415V36.2498" stroke="#EE7B7B" stroke-width="1.5" stroke-linecap="round" stroke-linejoin="round"/>
</svg>
