<svg width="33" height="42" viewBox="0 0 33 42" fill="none" xmlns="http://www.w3.org/2000/svg">
<path d="M16.5 41.0377C11.8953 39.6704 8.07047 36.8814 5.0256 32.6709C1.98074 28.4603 0.458313 23.7158 0.458313 18.4373V6.04398L16.5 0.0512695L32.5416 6.04398V18.4373C32.5416 23.7143 31.0192 28.458 27.9744 32.6686C24.9295 36.8791 21.1047 39.6673 16.5 41.0377ZM16.5 38.6063C20.4722 37.3459 23.7569 34.825 26.3541 31.0438C28.9514 27.2625 30.25 23.0611 30.25 18.4396V7.60919L16.5 2.49877L2.74998 7.60919V18.4373C2.74998 23.0588 4.04859 27.2602 6.64581 31.0415C9.24303 34.8227 12.5278 37.3459 16.5 38.6063Z" fill="#EE7B7B"/>
</svg>
