<svg width="90" height="90" viewBox="0 0 90 90" fill="none" xmlns="http://www.w3.org/2000/svg">
<path d="M44.5833 0C20.0625 0 0 20.0625 0 44.5833C0 69.1042 20.0625 89.1667 44.5833 89.1667C69.1042 89.1667 89.1667 69.1042 89.1667 44.5833C89.1667 20.0625 69.1042 0 44.5833 0ZM44.5833 80.25C24.9221 80.25 8.91667 64.2446 8.91667 44.5833C8.91667 24.9221 24.9221 8.91667 44.5833 8.91667C64.2446 8.91667 80.25 24.9221 80.25 44.5833C80.25 64.2446 64.2446 80.25 44.5833 80.25ZM65.0471 24.8775L35.6667 54.2579L24.1196 42.7554L17.8333 49.0417L35.6667 66.875L71.3333 31.2083L65.0471 24.8775Z" fill="#EE7B7B"/>
</svg>
