<svg width="56" height="37" viewBox="0 0 56 37" fill="none" xmlns="http://www.w3.org/2000/svg">
<path d="M14.6667 35.6667C16.0812 35.6667 17.4377 35.1048 18.4379 34.1046C19.4381 33.1044 20 31.7478 20 30.3333C20 28.9188 19.4381 27.5623 18.4379 26.5621C17.4377 25.5619 16.0812 25 14.6667 25C13.2522 25 11.8957 25.5619 10.8955 26.5621C9.89528 27.5623 9.33337 28.9188 9.33337 30.3333C9.33337 31.7478 9.89528 33.1044 10.8955 34.1046C11.8957 35.1048 13.2522 35.6667 14.6667 35.6667ZM41.3334 35.6667C42.7479 35.6667 44.1044 35.1048 45.1046 34.1046C46.1048 33.1044 46.6667 31.7478 46.6667 30.3333C46.6667 28.9188 46.1048 27.5623 45.1046 26.5621C44.1044 25.5619 42.7479 25 41.3334 25C39.9189 25 38.5623 25.5619 37.5621 26.5621C36.5619 27.5623 36 28.9188 36 30.3333C36 31.7478 36.5619 33.1044 37.5621 34.1046C38.5623 35.1048 39.9189 35.6667 41.3334 35.6667Z" stroke="#EE7B7B" stroke-width="1.5" stroke-miterlimit="1.5" stroke-linecap="round" stroke-linejoin="round"/>
<path d="M33.3334 30.3333V2.6C33.3334 2.17565 33.1648 1.76869 32.8647 1.46863C32.5647 1.16857 32.1577 1 31.7334 1H2.93337C2.50903 1 2.10206 1.16857 1.802 1.46863C1.50195 1.76869 1.33337 2.17565 1.33337 2.6V28.7333C1.33337 28.9434 1.37476 29.1515 1.45517 29.3456C1.53557 29.5397 1.65343 29.7161 1.802 29.8647C1.95058 30.0133 2.12696 30.1311 2.32108 30.2115C2.5152 30.2919 2.72326 30.3333 2.93337 30.3333H8.40004M33.3334 30.3333H20.1334M33.3334 30.3333H36M33.3334 9H48.2934C48.6027 9.00007 48.9053 9.08978 49.1646 9.25827C49.424 9.42675 49.6289 9.66679 49.7547 9.94933L54.528 20.6907C54.619 20.8946 54.6662 21.1154 54.6667 21.3387V28.7333C54.6667 28.9434 54.6253 29.1515 54.5449 29.3456C54.4645 29.5397 54.3467 29.7161 54.1981 29.8647C54.0495 30.0133 53.8731 30.1311 53.679 30.2115C53.4849 30.2919 53.2768 30.3333 53.0667 30.3333H48" stroke="#EE7B7B" stroke-width="1.5" stroke-linecap="round"/>
</svg>
