<svg width="68" height="22" viewBox="0 0 68 22" fill="none" xmlns="http://www.w3.org/2000/svg">
<path d="M25.8173 0.408945L16.915 21.6476H11.1067L6.72633 4.69577C6.46 3.65311 6.2305 3.27061 5.42017 2.83144C4.09983 2.11461 1.91817 1.44311 0 1.02378L0.130333 0.408945H9.48033C10.0913 0.408333 10.6824 0.626161 11.1469 1.02311C11.6114 1.42006 11.9187 1.96998 12.0133 2.57361L14.3282 14.8646L20.0458 0.408945H25.8173ZM48.5775 14.7144C48.6002 9.10727 40.8255 8.79844 40.8793 6.29377C40.8963 5.53161 41.6217 4.72128 43.2083 4.51444C45.0678 4.33784 46.9405 4.66676 48.6285 5.46644L49.5918 0.961444C47.9485 0.343211 46.2079 0.0236862 44.4522 0.0179443C39.0207 0.0179443 35.1985 2.90794 35.1645 7.04177C35.1305 10.0989 37.893 11.8018 39.9755 12.8218C42.1175 13.8616 42.8372 14.5303 42.8258 15.4596C42.8117 16.8876 41.1202 17.5138 39.5392 17.5393C36.7767 17.5818 35.1758 16.7941 33.8952 16.1991L32.9007 20.8514C34.1842 21.4408 36.5528 21.9564 39.0093 21.9791C44.7808 21.9791 48.5577 19.1288 48.5775 14.7144ZM62.917 21.6476H68L63.5658 0.408945H58.8738C58.3722 0.403135 57.8806 0.548747 57.4631 0.826759C57.0455 1.10477 56.7216 1.50226 56.5335 1.96728L48.2913 21.6476H54.06L55.2075 18.4743H62.2568L62.917 21.6476ZM56.7885 14.1223L59.6785 6.14644L61.3445 14.1223H56.7885ZM33.6685 0.408945L29.1267 21.6476H23.63L28.1775 0.408945H33.6685Z" fill="black"/>
</svg>
